<?xml version="1.0" encoding="UTF-8"?><svg xmlns="http://www.w3.org/2000/svg" xmlns:xlink="http://www.w3.org/1999/xlink" contentScriptType="text/ecmascript" width="300" zoomAndPan="magnify" contentStyleType="text/css" viewBox="0 0 300 449.999984" height="449.999984" preserveAspectRatio="xMidYMid meet" version="1.0"><defs><clipPath id="clip-0"><path d="M 126 220.882812 L 206 220.882812 L 206 281 L 126 281 Z M 126 220.882812 " clip-rule="nonzero"/></clipPath><clipPath id="clip-1"><path d="M 225 118.953125 L 300 118.953125 L 300 178 L 225 178 Z M 225 118.953125 " clip-rule="nonzero"/></clipPath></defs><g clip-path="url(#clip-0)"><path fill="rgb(100%, 100%, 100%)" d="M 205.632812 277.800781 C 205.632812 279.371094 204.347656 280.660156 202.773438 280.660156 L 129.488281 280.660156 C 127.917969 280.660156 126.632812 279.371094 126.632812 277.800781 L 126.632812 199.621094 C 126.632812 198.046875 127.917969 196.761719 129.488281 196.761719 L 202.773438 196.761719 C 204.347656 196.761719 205.632812 198.046875 205.632812 199.621094 Z M 205.632812 277.800781 " fill-opacity="1" fill-rule="nonzero"/></g><path fill="rgb(0%, 41.569519%, 30.589294%)" d="M 2.953125 304.4375 L 279.542969 304.4375 L 279.542969 329.195312 L 2.953125 329.195312 Z M 2.953125 304.4375 " fill-opacity="1" fill-rule="nonzero"/><g clip-path="url(#clip-1)"><path fill="rgb(92.939758%, 10.5896%, 18.429565%)" d="M 300.066406 147.632812 C 300.007812 147.625 256.550781 172.617188 246.367188 176.417969 C 237.007812 180.117188 233.34375 175.339844 232.46875 173.488281 C 230.613281 171.679688 225.121094 155.117188 225.152344 155.085938 C 225.121094 155.117188 228.09375 155.542969 233.367188 154.203125 C 239.984375 152.515625 300.007812 118.933594 300.066406 118.953125 Z M 300.066406 147.632812 " fill-opacity="1" fill-rule="nonzero"/></g><path fill="rgb(0%, 41.569519%, 30.589294%)" d="M 178.808594 169.679688 L 197.476562 216.453125 L 230.453125 199.097656 L 201.894531 135.753906 L 160.34375 135.753906 L 101.980469 244.726562 C 102.027344 244.75 130.695312 243.84375 149.070312 229.988281 C 153.71875 227.253906 166.8125 192.832031 178.808594 169.679688 Z M 178.808594 169.679688 " fill-opacity="1" fill-rule="nonzero"/><path fill="rgb(0%, 58.428955%, 59.21936%)" d="M 230.453125 199.097656 L 197.476562 216.457031 C 169.261719 230.914062 142.460938 243.597656 128.03125 247.683594 C 89.957031 258.65625 43.582031 265.238281 26.917969 250.476562 C 11.25 236.554688 47.429688 178.269531 115.863281 165.300781 C 126.960938 162.824219 133.4375 163.460938 133.4375 163.53125 C 133.4375 163.460938 128.746094 143.601562 125.097656 139.414062 C 119.992188 133.167969 114.992188 131.882812 107.539062 132.828125 C 92.722656 133.710938 29.707031 150.523438 4.84375 203.066406 C -9.019531 232.917969 10.335938 264.335938 22.375 272.535156 C 26.046875 275.480469 63.128906 307.789062 145.429688 275.503906 C 226.96875 243.84375 300.007812 193.992188 300.066406 193.992188 L 300.066406 160.636719 C 300.035156 160.59375 267.835938 179.058594 230.453125 199.097656 Z M 230.453125 199.097656 " fill-opacity="1" fill-rule="nonzero"/><path fill="rgb(0%, 41.569519%, 30.589294%)" d="M 209.050781 246.859375 C 212.101562 254.03125 220.867188 274.894531 223.109375 280.90625 C 226.035156 287.496094 233.34375 287.496094 233.34375 287.464844 L 271.386719 287.464844 L 243.054688 228.703125 C 232.671875 234.53125 221.230469 240.679688 209.050781 246.859375 Z M 209.050781 246.859375 " fill-opacity="1" fill-rule="nonzero"/></svg>